Poster: 
http://www.shotpix.com/images/63410847229469138042.jpg

Info:

Format : AVI
Format/Info : Audio Video Interleave
File size : 697 MiB
Duration : 2h 49mn
Overall bit rate : 573 Kbps
Writing application : VirtualDubMod 1.5.10.2 (build 2540/release)
Writing library : VirtualDubMod build 2540/release

Video
ID : 0
Format : MPEG-4 Visual
Format profile : Advanced Simple@L5
Format settings, BVOP : 1
Format settings, QPel : No
Format settings, GMC : No warppoints
Format settings, Matrix : Custom
Codec ID : XVID
Codec ID/Hint : XviD
Duration : 2h 49mn
Bit rate : 484 Kbps
Width : 608 pixels
Height : 256 pixels
Display aspect ratio : 2.40:1
Frame rate : 23.976 fps
Color space : YUV
Chroma subsampling : 4:2:0
Bit depth : 8 bits
Scan type : Progressive
Compression mode : Lossy
Bits/(Pixel*Frame) : 0.130
Stream size : 588 MiB (84%)
Writing library : XviD 1.2.1 (UTC 2008-12-04)

Audio
ID : 1
Format : MPEG Audio
Format version : Version 1
Format profile : Layer 3
Mode : Joint stereo
Mode extension : MS Stereo
Codec ID : 55
Codec ID/Hint : MP3
Duration : 2h 49mn
Bit rate mode : Constant
Bit rate : 80.0 Kbps
Channel(s) : 2 channels
Sampling rate : 32.0 KHz
Compression mode : Lossy
Stream size : 97.2 MiB (14%)
Alignment : Aligned on interleaves
Interleave, duration : 42 ms (1.00 video frame)
Interleave, preload duration : 504 ms
Writing library : LAME3.99r
Encoding settings : -m j -V 4 -q 2 -lowpass 13.5 -b 80


Screens: 
http://www.shotpix.com/images/85514626590184463100.png 
http://www.shotpix.com/images/04869674706461681790.png 
http://www.shotpix.com/images/41183754825203817566.png 
http://www.shotpix.com/images/09305286916862274623.png 
http://www.shotpix.com/images/01452996986251600381.png 
http://www.shotpix.com/images/86299530229179577846.png


